<?xml version="1.0" standalone="no"?>
<!DOCTYPE svg PUBLIC "-//W3C//DTD SVG 20010904//EN"
 "http://www.w3.org/TR/2001/REC-SVG-20010904/DTD/svg10.dtd">
<svg version="1.0" xmlns="http://www.w3.org/2000/svg"
 width="256.000000pt" height="256.000000pt" viewBox="0 0 256.000000 256.000000"
 preserveAspectRatio="xMidYMid meet">
<metadata>
Created by potrace 1.11, written by Peter Selinger 2001-2013
</metadata>
<g transform="translate(0.000000,256.000000) scale(0.100000,-0.100000)"
fill="#000000" stroke="none">
<path d="M731 1616 c-51 -17 -95 -56 -122 -108 -25 -49 -28 -258 -4 -316 41
-98 153 -148 270 -122 84 19 132 70 148 158 l7 32 -65 0 c-52 0 -65 -3 -65
-15 0 -9 -7 -29 -15 -45 -29 -55 -120 -48 -152 13 -19 38 -28 128 -18 203 8
70 45 114 95 114 40 0 90 -47 90 -84 0 -25 2 -26 65 -26 36 0 65 4 65 8 0 5
-7 31 -15 58 -16 54 -49 95 -95 119 -43 22 -137 28 -189 11z"/>
<path d="M1090 1345 l0 -275 67 0 66 0 -6 182 c-4 100 -5 179 -2 176 3 -3 32
-84 64 -179 l58 -174 44 -3 44 -3 59 173 c33 95 62 176 65 180 3 4 5 -74 3
-173 l-4 -180 64 3 63 3 0 270 0 270 -84 0 -84 0 -62 -185 c-34 -101 -64 -180
-67 -175 -3 6 -31 90 -62 188 l-57 177 -84 0 -85 0 0 -275z"/>
<path d="M1901 1588 c-5 -18 -46 -149 -90 -290 -45 -141 -81 -262 -81 -267 0
-19 78 -13 88 7 10 18 182 563 182 575 0 4 -20 7 -44 7 -41 0 -45 -2 -55 -32z"/>
<path d="M328 1393 l-158 -65 0 -48 0 -48 160 -66 c88 -36 162 -66 165 -66 3
0 5 24 5 53 l0 53 -101 33 c-55 18 -99 35 -96 37 2 3 49 19 103 38 l99 33 3
56 c2 42 0 57 -10 56 -7 -1 -84 -31 -170 -66z"/>
<path d="M2030 1402 l0 -58 100 -33 c55 -18 100 -34 100 -36 0 -2 -45 -18
-100 -36 l-100 -33 0 -54 c0 -63 -19 -65 182 18 l143 59 3 49 c2 34 -1 51 -10
55 -7 3 -80 32 -162 66 -82 34 -150 61 -152 61 -2 0 -4 -26 -4 -58z"/>
</g>
</svg>
